PathFileType	4	(X/Y/Z)	C:\Users\WrightLab\Desktop\Jo\P1.2Trial3.trc
DataRate	CameraRate	NumFrames	NumMarkers	Units	OrigDataRate	OrigDataStartFrame	OrigNumFrames
100.00	100.00	       10	19	mm	100.00	165	       658
Frame#	Time	Headset_Front			Headset_Back			Headset_Left			Headset_Right			Left_Shoulder			Right_Shoulder			Sternum			C7			Left Elbow			Right Elbow			Left Wrist			Right Wrist			Left ASIS			Right ASIS			S2			Left Knee			Right Knee			Left Ankle			Right Ankle			
		X1	Y1	Z1	X2	Y2	Z2	X3	Y3	Z3	X4	Y4	Z4	X5	Y5	Z5	X6	Y6	Z6	X7	Y7	Z7	X8	Y8	Z8	X9	Y9	Z9	X10	Y10	Z10	X11	Y11	Z11	X12	Y12	Z12	X13	Y13	Z13	X14	Y14	Z14	X15	Y15	Z15	X16	Y16	Z16	X17	Y17	Z17	X18	Y18	Z18	X19	Y19	Z19	

165	1.640	-513.22864	1364.51538	-1225.90540	-569.11884	1181.72961	-1363.37585				-442.11804	1326.47485	-1100.18152	-158.37927	1187.10449	-1267.72583				-388.12408	1107.73340	-1212.91931				-70.70666	904.64337	-1317.29565				-52.92106	687.39764	-1219.80554				-246.83186	799.93719	-1209.21960	-517.46265	787.90741	-1285.83752	-303.82254	859.77698	-1519.48645	-190.53909	363.27795	-1298.93384	-572.12622	401.92001	-1248.36145	-97.12313	65.64107	-1533.68396	-628.26721	81.16958	-1206.62671	
166	1.650				-576.05383	1180.48254	-1355.39355				-449.63565	1326.94812	-1094.22046	-165.05855	1187.93274	-1262.41711				-394.78116	1108.62964	-1201.70935				-77.81032	905.61157	-1312.27844				-58.92181	688.02441	-1213.29163				-255.55794	799.73291	-1205.34155	-524.14423	788.72791	-1278.04968	-310.89819	859.80975	-1513.20642	-195.01833	362.59082	-1292.45459	-576.82562	404.71152	-1240.55859	-97.04290	71.07116	-1532.31628	-630.03760	78.85683	-1203.12708	
167	1.660	-527.40594	1366.18726	-1213.36328							-455.86038	1327.92590	-1088.74719	-172.85176	1189.12329	-1256.77673				-402.10022	1108.37488	-1199.29114				-86.28565	906.37891	-1306.21216				-65.45280	689.23730	-1206.88721				-260.86127	801.21844	-1196.16003	-531.16211	787.90424	-1275.18835	-317.71597	860.25739	-1506.12854	-200.63278	363.17786	-1290.41809	-581.37482	404.59042	-1235.96558	-98.44105	74.53138	-1527.33081	-631.51379	76.57145	-1201.36218	
168	1.670	-533.81750	1368.03223	-1210.20557	-591.13074	1182.50281	-1346.35974				-462.32080	1329.07239	-1082.51514	-180.37341	1190.68262	-1251.11475				-410.35577	1108.45825	-1196.26624				-92.77744	908.04822	-1301.99377				-71.96861	691.32495	-1200.44556				-269.28336	802.01593	-1191.16223	-538.91577	789.59875	-1265.75745	-324.58389	860.83881	-1499.20166	-209.01440	363.04898	-1286.16467	-587.64166	405.29742	-1226.81995	-100.48613	78.38767	-1520.81860	-632.96045	76.16486	-1199.69067	
169	1.680	-541.13257	1368.10339	-1200.63232	-597.97833	1181.65930	-1337.09058				-469.00159	1330.12781	-1075.85059	-187.86107	1191.41675	-1242.81641				-417.15598	1110.62073	-1182.22668				-101.31223	909.07977	-1295.30750				-78.71192	692.40613	-1193.28931				-277.76715	803.13489	-1182.37146	-546.02692	792.12048	-1261.12500	-331.39539	862.17859	-1492.61902	-214.68488	364.83731	-1280.46436	-592.53900	407.35617	-1219.91052	-100.70762	84.95150	-1517.86304	-636.48108	74.53765	-1196.28516	
170	1.690	-548.33240	1369.31189	-1194.31299							-475.19589	1330.77893	-1069.90991	-195.24516	1192.95581	-1235.76428				-424.88171	1112.30200	-1177.18494				-109.22794	910.73193	-1289.55408				-86.28097	694.65295	-1186.66541				-283.38202	805.60333	-1172.23853	-554.42175	793.69971	-1254.87695	-337.90924	863.41675	-1485.63196	-222.36311	366.63437	-1268.65723	-599.24042	409.12030	-1213.60132	-103.73991	89.13834	-1510.59058	-638.51416	71.50318	-1198.09680	
171	1.700	-555.20471	1371.10120	-1189.98193	-612.73218	1184.41467	-1325.40088				-481.65723	1331.28845	-1063.03467	-202.60005	1194.86938	-1229.16809				-433.14526	1114.01843	-1174.38049				-116.15639	912.72321	-1285.62708				-93.29583	696.63391	-1178.30847				-293.12741	806.57251	-1166.39795	-561.55426	795.03735	-1252.77991	-344.38391	865.03632	-1478.97876	-230.07259	368.64542	-1258.18970	-604.40704	409.14264	-1209.60193	-107.26038	93.31527	-1502.50415	-640.35724	72.15273	-1194.64807	
172	1.710	-562.87103	1372.08118	-1182.83728	-619.13129	1186.56128	-1321.39514				-488.84894	1332.61597	-1057.54480	-210.04707	1197.68518	-1224.66125				-439.88348	1115.25842	-1165.38953				-124.93928	914.65796	-1278.32788				-100.40238	698.44415	-1172.00928				-300.26096	808.28387	-1158.52966	-569.43414	796.60754	-1243.47583	-350.57071	866.67822	-1471.83252	-237.12299	369.99396	-1254.08716	-610.54120	408.27597	-1205.98169	-109.95568	98.17432	-1494.96582	-641.20093	70.67319	-1194.93335	
173	1.720	-569.33459	1373.07312	-1176.24902							-495.26917	1333.10547	-1051.01099	-217.97273	1199.77478	-1217.87842				-446.87952	1117.49670	-1157.76233				-132.33638	916.51788	-1272.55139				-108.20143	700.89246	-1165.72180				-307.48947	811.21497	-1150.99536	-577.25183	800.56396	-1237.45520	-356.88065	868.00018	-1464.37390	-245.39732	370.80194	-1247.31201	-616.25360	409.90137	-1199.02686	-113.84189	104.03492	-1484.92407	-642.71710	70.96904	-1189.94104	
174	1.730	-575.77338	1374.10608	-1169.33557							-501.44107	1334.14795	-1044.72961	-224.39119	1202.01514	-1212.22803				-454.83948	1119.48315	-1154.37927				-140.36108	919.05713	-1266.23718				-115.89342	703.43005	-1159.28613				-316.07462	811.65149	-1144.68286	-585.02411	801.44812	-1232.23022	-363.06598	869.90784	-1457.91052	-250.80922	372.84866	-1232.19312	-621.44293	408.14886	-1198.44934	-116.90469	109.08645	-1475.77734	-644.03705	69.38562	-1188.87854	
